<svg xmlns="http://www.w3.org/2000/svg" viewBox="0 0 72 72" fill="#fff">
	<path d="M57.46 7.34c-1.42 0-2.8.76-3.52 2.1L28.39 56.79a4.004 4.004 0 0 0 1.62 5.42l3.52 1.9c.6.33 1.25.48 1.9.48 1.42 0 2.8-.76 3.52-2.1L64.5 15.14c1.05-1.94.32-4.37-1.62-5.42l-3.52-1.9c-.6-.33-1.25-.48-1.9-.48Z"/>
	<path d="M13.25 40.22c-1.43 0-2.81.77-3.53 2.12l-1.88 3.53a4.003 4.003 0 0 0 1.64 5.41l24.09 12.86a3.996 3.996 0 0 0 5.41-1.65l1.88-3.53c1.04-1.95.3-4.37-1.64-5.41L15.13 40.69a3.97 3.97 0 0 0-1.88-.47Z"/>
</svg>