<svg xmlns="http://www.w3.org/2000/svg" viewBox="0 0 72 72" fill="#fff">
	<path d="m14.4 14.4 43.29 43.29L14.4 14.4m0-6.83c-1.02 0-2.05.39-2.83 1.17l-2.83 2.83a4.008 4.008 0 0 0 0 5.66l46.12 46.12c.78.78 1.8 1.17 2.83 1.17s2.05-.39 2.83-1.17l2.83-2.83a4.008 4.008 0 0 0 0-5.66L17.22 8.74c-.78-.78-1.8-1.17-2.83-1.17Z"/>
	<path d="M57.69 14.4 14.4 57.69 57.69 14.4m0-6.83c-1.02 0-2.05.39-2.83 1.17L8.74 54.86a4.008 4.008 0 0 0 0 5.66l2.83 2.83c.78.78 1.8 1.17 2.83 1.17s2.05-.39 2.83-1.17l46.11-46.13a4.008 4.008 0 0 0 0-5.66l-2.83-2.83c-.78-.78-1.8-1.17-2.83-1.17Z"/>
</svg>